# xmcd
#
# Track frame offsets:
# 150
# 11978
# 24023
# 38528
# 49433
# 61820
# 76538
# 88118
# 98763
# 112178
# 139353
# 150208
# 160660
#
# Disc length: 2307 seconds
#
#
# Revision: 2
# Processed by: cddbd v1.5.2PL0 Copyright (c) Steve Scherf et al.
# Submitted via: FreeRIP 2.951 
#
DISCID=9209010d
DTITLE=Big Country - 20 Great Country And Trucker Songs - 1991 - CD1
DYEAR=1991
DGENRE=Country
TTITLE0=Dave Dudley - Six Days On The Road
TTITLE1=Wanda Jackson - Right Or Wrong
TTITLE2=Frankie Laine - Jezebel
TTITLE3=Waylon Jennings - Sally Was A Good Old Girl
TTITLE4=Jeanne Pruett - Satin Sheets
TTITLE5=Johnny Lee - Country Party
TTITLE6=Johnny Paycheck - Take This Job And Shove It
TTITLE7=Stonewall Jackson - Waterloo
TTITLE8=Lynn Anderson - Rose Garden
TTITLE9=Jimmy Dean - To A Sleeping Beauty
TTITLE10=Hank Locklin - Send Me The Pillow That You Dream On
TTITLE11=Willie Nelson - Blame It On The Time
TTITLE12=Kenny Rodgers - Reuben James
EXTD=
EXTT0=
EXTT1=
EXTT2=
EXTT3=
EXTT4=
EXTT5=
EXTT6=
EXTT7=
EXTT8=
EXTT9=
EXTT10=
EXTT11=
EXTT12=
PLAYORDER=
